<svg xmlns="http://www.w3.org/2000/svg" xmlns:xlink="http://www.w3.org/1999/xlink" width="500" zoomAndPan="magnify" viewBox="0 0 375 374.999991" height="500" preserveAspectRatio="xMidYMid meet" version="1.0"><defs><clipPath id="bea98a3a9d"><path d="M 210 37.5 L 323 37.5 L 323 120 L 210 120 Z M 210 37.5 " clip-rule="nonzero"/></clipPath><clipPath id="b876057d17"><path d="M 37.5 169 L 150 169 L 150 283 L 37.5 283 Z M 37.5 169 " clip-rule="nonzero"/></clipPath></defs><path fill="#000000" d="M 281.375 283.1875 C 284.9375 286.847656 287.148438 291.824219 287.148438 297.335938 C 287.148438 302.847656 284.9375 307.824219 281.375 311.484375 C 291.683594 309.875 301.675781 306.492188 310.828125 301.414062 C 311.964844 300.359375 312.621094 298.886719 312.621094 297.335938 C 312.621094 295.785156 311.964844 294.3125 310.828125 293.257812 C 301.675781 288.179688 291.683594 284.796875 281.375 283.1875 " fill-opacity="1" fill-rule="nonzero"/><path fill="#000000" d="M 222.703125 293.257812 C 221.570312 294.3125 220.914062 295.785156 220.914062 297.335938 C 220.914062 298.886719 221.570312 300.359375 222.703125 301.414062 C 231.859375 306.492188 241.851562 309.875 252.160156 311.484375 C 248.597656 307.824219 246.386719 302.847656 246.386719 297.335938 C 246.386719 291.824219 248.597656 286.847656 252.160156 283.1875 C 241.851562 284.796875 231.859375 288.179688 222.703125 293.257812 " fill-opacity="1" fill-rule="nonzero"/><path fill="#000000" d="M 316.917969 309.59375 L 316.242188 310.054688 C 301.417969 318.410156 284.578125 322.808594 267.5625 322.808594 L 265.972656 322.808594 C 248.957031 322.808594 232.117188 318.410156 217.292969 310.054688 L 216.613281 309.59375 C 212.875 306.589844 210.722656 302.132812 210.722656 297.335938 C 210.722656 292.539062 212.875 288.082031 216.613281 285.078125 L 217.292969 284.617188 C 232.117188 276.261719 248.957031 271.863281 265.972656 271.863281 L 267.5625 271.863281 C 284.578125 271.863281 301.417969 276.261719 316.242188 284.617188 L 316.917969 285.078125 C 320.660156 288.082031 322.808594 292.539062 322.808594 297.335938 C 322.808594 302.132812 320.660156 306.589844 316.917969 309.59375 Z M 327.90625 261.671875 L 205.628906 261.671875 C 202.824219 261.671875 200.535156 263.960938 200.535156 266.765625 L 200.535156 327.90625 C 200.535156 330.710938 202.824219 333 205.628906 333 L 327.90625 333 C 330.710938 333 333 330.710938 333 327.90625 L 333 266.765625 C 333 263.960938 330.710938 261.671875 327.90625 261.671875 " fill-opacity="1" fill-rule="nonzero"/><path fill="#000000" d="M 231.519531 231.101562 L 302.011719 231.101562 C 299.523438 213.847656 284.699219 200.535156 266.765625 200.535156 C 248.835938 200.535156 234.007812 213.847656 231.519531 231.101562 " fill-opacity="1" fill-rule="nonzero"/><path fill="#000000" d="M 215.820312 231.101562 L 221.210938 231.101562 C 223.164062 213.53125 235.082031 198.980469 251.183594 193.132812 C 248.238281 189.589844 246.386719 185.109375 246.386719 180.15625 C 246.386719 168.910156 255.523438 159.777344 266.765625 159.777344 C 278.011719 159.777344 287.148438 168.910156 287.148438 180.15625 C 287.148438 185.109375 285.296875 189.589844 282.351562 193.132812 C 298.449219 198.980469 310.371094 213.53125 312.320312 231.101562 L 317.714844 231.101562 C 320.523438 231.101562 322.808594 228.816406 322.808594 226.007812 L 322.808594 154.679688 C 322.808594 151.875 320.523438 149.585938 317.714844 149.585938 L 215.820312 149.585938 C 213.011719 149.585938 210.722656 151.875 210.722656 154.679688 L 210.722656 226.007812 C 210.722656 228.816406 213.011719 231.101562 215.820312 231.101562 " fill-opacity="1" fill-rule="nonzero"/><path fill="#000000" d="M 276.957031 180.15625 C 276.957031 174.542969 272.378906 169.964844 266.765625 169.964844 C 261.15625 169.964844 256.578125 174.542969 256.578125 180.15625 C 256.578125 185.765625 261.15625 190.34375 266.765625 190.34375 C 272.378906 190.34375 276.957031 185.765625 276.957031 180.15625 " fill-opacity="1" fill-rule="nonzero"/><g clip-path="url(#bea98a3a9d)"><path fill="#000000" d="M 241.292969 73.164062 L 251.484375 73.164062 L 251.484375 83.351562 C 251.484375 91.792969 258.328125 98.636719 266.765625 98.636719 C 275.207031 98.636719 282.050781 91.792969 282.050781 83.351562 L 292.242188 83.351562 C 292.242188 97.402344 280.816406 108.828125 266.765625 108.828125 C 252.714844 108.828125 241.292969 97.402344 241.292969 83.351562 Z M 271.863281 73.164062 L 271.863281 83.351562 C 271.863281 86.160156 269.574219 88.449219 266.765625 88.449219 C 263.960938 88.449219 261.671875 86.160156 261.671875 83.351562 L 261.671875 73.164062 C 261.671875 70.359375 263.960938 68.070312 266.765625 68.070312 C 269.574219 68.070312 271.863281 70.359375 271.863281 73.164062 Z M 266.765625 47.691406 C 280.816406 47.691406 292.242188 59.113281 292.242188 73.164062 L 282.050781 73.164062 C 282.050781 64.726562 275.207031 57.878906 266.765625 57.878906 C 261.335938 57.878906 256.257812 60.804688 253.53125 65.523438 L 244.695312 60.425781 C 249.253906 52.566406 257.691406 47.691406 266.765625 47.691406 Z M 215.820312 119.015625 L 317.714844 119.015625 C 320.523438 119.015625 322.808594 116.730469 322.808594 113.921875 L 322.808594 42.59375 C 322.808594 39.789062 320.523438 37.5 317.714844 37.5 L 215.820312 37.5 C 213.011719 37.5 210.722656 39.789062 210.722656 42.59375 L 210.722656 113.921875 C 210.722656 116.730469 213.011719 119.015625 215.820312 119.015625 " fill-opacity="1" fill-rule="nonzero"/></g><path fill="#000000" d="M 266.765625 292.242188 C 263.960938 292.242188 261.671875 294.53125 261.671875 297.335938 C 261.671875 300.140625 263.960938 302.429688 266.765625 302.429688 C 269.574219 302.429688 271.863281 300.140625 271.863281 297.335938 C 271.863281 294.53125 269.574219 292.242188 266.765625 292.242188 " fill-opacity="1" fill-rule="nonzero"/><g clip-path="url(#b876057d17)"><path fill="#000000" d="M 47.691406 226.007812 C 47.691406 200.714844 68.269531 180.15625 93.542969 180.15625 C 118.839844 180.15625 139.398438 200.714844 139.398438 226.007812 C 139.398438 251.304688 118.839844 271.863281 93.542969 271.863281 C 68.269531 271.863281 47.691406 251.304688 47.691406 226.007812 Z M 149.585938 226.007812 L 149.585938 185.25 C 149.585938 176.8125 142.738281 169.964844 134.300781 169.964844 L 52.785156 169.964844 C 44.347656 169.964844 37.5 176.8125 37.5 185.25 L 37.5 226.007812 C 37.5 256.914062 62.636719 282.050781 93.542969 282.050781 C 124.449219 282.050781 149.585938 256.914062 149.585938 226.007812 " fill-opacity="1" fill-rule="nonzero"/></g><path fill="#000000" d="M 78.257812 220.914062 C 78.257812 212.476562 85.105469 205.628906 93.542969 205.628906 C 101.980469 205.628906 108.828125 212.476562 108.828125 220.914062 C 108.828125 227.5625 104.546875 233.152344 98.636719 235.261719 L 98.636719 251.484375 L 88.449219 251.484375 L 88.449219 235.261719 C 82.515625 233.152344 78.257812 227.5625 78.257812 220.914062 Z M 129.207031 226.007812 C 129.207031 206.347656 113.207031 190.34375 93.542969 190.34375 C 73.878906 190.34375 57.878906 206.347656 57.878906 226.007812 C 57.878906 245.671875 73.878906 261.671875 93.542969 261.671875 C 113.207031 261.671875 129.207031 245.671875 129.207031 226.007812 " fill-opacity="1" fill-rule="nonzero"/><path fill="#000000" d="M 73.164062 124.113281 C 73.164062 112.847656 82.296875 103.734375 93.542969 103.734375 C 104.808594 103.734375 113.921875 112.847656 113.921875 124.113281 L 113.921875 159.777344 L 134.300781 159.777344 L 134.300781 124.113281 C 134.300781 101.601562 116.050781 83.351562 93.542969 83.351562 C 71.035156 83.351562 52.785156 101.601562 52.785156 124.113281 L 52.785156 159.777344 L 73.164062 159.777344 L 73.164062 124.113281 " fill-opacity="1" fill-rule="nonzero"/><path fill="#000000" d="M 200.535156 190.34375 L 200.535156 180.15625 L 159.199219 180.15625 C 159.535156 181.808594 159.777344 183.5 159.777344 185.25 L 159.777344 190.34375 L 200.535156 190.34375 " fill-opacity="1" fill-rule="nonzero"/><path fill="#000000" d="M 98.636719 73.421875 L 98.636719 57.878906 L 200.535156 57.878906 L 200.535156 47.691406 L 88.449219 47.691406 L 88.449219 73.421875 C 90.121094 73.261719 91.8125 73.164062 93.542969 73.164062 C 95.273438 73.164062 96.964844 73.261719 98.636719 73.421875 " fill-opacity="1" fill-rule="nonzero"/><path fill="#000000" d="M 98.636719 291.984375 C 96.945312 292.121094 95.273438 292.242188 93.542969 292.242188 C 91.8125 292.242188 90.140625 292.121094 88.449219 291.984375 L 88.449219 322.808594 L 190.34375 322.808594 L 190.34375 312.621094 L 98.636719 312.621094 L 98.636719 291.984375 " fill-opacity="1" fill-rule="nonzero"/></svg>